<?xml version="1.0" encoding="utf-8"?>
<!-- Generator: Adobe Illustrator 27.5.0, SVG Export Plug-In . SVG Version: 6.00 Build 0)  -->
<svg version="1.1" id="Capa_1" xmlns="http://www.w3.org/2000/svg" xmlns:xlink="http://www.w3.org/1999/xlink" x="0px" y="0px"
	 viewBox="0 0 2122 2122" style="enable-background:new 0 0 2122 2122;" xml:space="preserve">
<path style="fill:#59846E;" d="M1749.21,1815.171c-38.801-56.122-112.116-92.56-177.051-71.61
	c-9.388,3.031-19.037,7.218-28.743,5.443c-16.463-3.013-24.899-21.013-30.721-36.704c-20.233-54.543-40.47-109.083-60.706-163.625
	c-22.903-61.732-49.011-127.616-104.048-163.765c-28.049-18.421-61.451-27.332-94.825-30.862
	c-65.612-6.938-133.678,8.253-190.406,41.466c0.682-82.097,2.821-164.179,5.447-246.234c2.039-63.724,4.21-127.443,6.387-191.165
	c169.882-128.359,399.103-145.536,593.596-233.998c26.513-12.058,53.037-25.941,72.518-47.596
	c19.479-21.654,30.828-52.672,22.29-80.518c-10.356-33.771-45.778-53.325-79.917-62.392
	c-101.466-26.952-209.842,9.065-300.09,62.706c-136.695,81.246-241.084,204.061-307.927,347.997
	c0.76-22.331,1.525-44.662,2.281-66.991c1.59-47.055,3.778-94.182,5.274-141.317c19.406-70.801,38.631-150.773,50.801-212.281
	c16.765-84.725,22.168-173.005,2.673-257.143c-7.079-30.558-17.645-60.842-36.083-86.221c-18.433-25.381-45.531-45.545-76.481-50.65
	c-47.539-7.846-95.987,22.26-119.322,64.416c-23.337,42.156-24.87,93.532-14.999,140.693c9.869,47.159,30.234,91.341,49.054,135.697
	c22.29,52.533,42.614,105.929,67.018,157.512c17.503,36.998,37.417,74.743,48.236,113.802c-1.267,35.956-2.875,71.899-4.087,107.775
	c-3.033,89.763-6.122,179.523-9.087,269.291c-0.582,17.601-1.133,35.203-1.678,52.806
	c-41.283-62.633-82.567-125.263-123.851-187.896c-38.482-58.377-77.336-117.217-126.961-166.476
	c-49.622-49.259-111.458-88.862-180.454-100.194c-35.995-5.912-77.442-2.073-101.724,25.147
	c-18.894,21.184-23.02,52.07-19.464,80.23c7.554,59.802,45.395,112.435,92.15,150.476c46.755,38.041,102.233,63.517,157.046,88.587
	c98.737,45.157,197.474,90.311,296.21,135.468c2.229,1.021,4.265,2.122,6.192,3.274c-1.839,62.694-3.33,125.397-3.917,188.115
	c-0.08,8.811-0.132,17.625-0.178,26.436c-27.405,20.709-51.028,46.163-68.85,75.814c-32.417-25.137-66.253-50.961-106.284-59.919
	c-83.651-18.714-165.877,42.496-212.537,114.406c-36.818,56.74-60.078,122.216-67.305,189.468
	c-3.951,36.755-4.789,77.833-30.813,104.089c-35.072,35.384-94.893,23.934-140.617,43.715c-44.219,19.13-68.06,63.12-83.768,110.416
	H1797.83C1796.223,1930.203,1784.646,1866.43,1749.21,1815.171z"/>
<path style="fill:#2C8E60;" d="M1183.453,1158.614c-5.271,0-9.544,4.273-9.544,9.544c0,5.271,4.273,9.545,9.544,9.545
	c5.271,0,9.544-4.273,9.544-9.545C1192.998,1162.886,1188.725,1158.614,1183.453,1158.614z"/>
<path style="fill:#2C8E60;" d="M1196.179,1023.716c-12.3,0-22.27,9.971-22.27,22.273c0,12.299,9.97,22.27,22.27,22.27
	c12.299,0,22.27-9.971,22.27-22.27C1218.449,1033.687,1208.479,1023.716,1196.179,1023.716z"/>
<path style="fill:#2C8E60;" d="M1261.165,1077.167c-5.257,0-9.518,4.26-9.518,9.517c0,5.254,4.26,9.515,9.518,9.515
	c5.257,0,9.517-4.261,9.517-9.515C1270.683,1081.428,1266.422,1077.167,1261.165,1077.167z"/>
<path style="fill:#2C8E60;" d="M1394.39,883.729c-5.096,0-9.226,4.132-9.226,9.226c0,5.096,4.129,9.228,9.226,9.228
	c5.096,0,9.228-4.132,9.228-9.228C1403.617,887.861,1399.486,883.729,1394.39,883.729z"/>
<path style="fill:#2C8E60;" d="M829.03,774.283c-12.651,0-22.906,10.256-22.906,22.909c0,12.651,10.255,22.906,22.906,22.906
	c12.65,0,22.906-10.255,22.906-22.906C851.936,784.539,841.68,774.283,829.03,774.283z"/>
<ellipse transform="matrix(0.9846 -0.1749 0.1749 0.9846 -113.1467 146.0842)" style="fill:#2C8E60;" cx="772.4" cy="715.107" rx="9.544" ry="9.544"/>
<path style="fill:#2C8E60;" d="M811.213,596.755c0-8.083-6.553-14.636-14.636-14.636s-14.633,6.553-14.633,14.636
	c0,8.083,6.551,14.633,14.633,14.633S811.213,604.838,811.213,596.755z"/>
<ellipse transform="matrix(0.3846 -0.9231 0.9231 0.3846 -603.7913 1232.1387)" style="fill:#2C8E60;" cx="622.211" cy="1068.914" rx="8.253" ry="8.253"/>
<path style="fill:#2C8E60;" d="M698.268,1131.888c-10.014,0-18.133,8.119-18.133,18.136c0,10.014,8.119,18.134,18.133,18.134
	s18.134-8.12,18.134-18.134C716.402,1140.007,708.283,1131.888,698.268,1131.888z"/>
<path style="fill:#2C8E60;" d="M803.895,1108.982c-4.042,0-7.318,3.277-7.318,7.318c0,4.042,3.276,7.318,7.318,7.318
	s7.318-3.276,7.318-7.318C811.213,1112.258,807.937,1108.982,803.895,1108.982z"/>
<path style="fill:#2C8E60;" d="M1181.862,344.776c4.392,0,7.954-3.561,7.954-7.953c0-4.395-3.562-7.954-7.954-7.954
	c-4.392,0-7.953,3.559-7.953,7.954C1173.909,341.215,1177.47,344.776,1181.862,344.776z"/>
<path style="fill:#2C8E60;" d="M1208.905,239.786c-8.785,0-15.907,7.12-15.907,15.907c0,8.784,7.123,15.907,15.907,15.907
	c8.787,0,15.907-7.123,15.907-15.907C1224.812,246.906,1217.692,239.786,1208.905,239.786z"/>
<path style="fill:#824212;" d="M429.024,1762.618c-7.902,0-14.312,6.406-14.312,14.311s6.409,14.312,14.312,14.312
	c7.905,0,14.312-6.407,14.312-14.312S436.928,1762.618,429.024,1762.618z"/>
<path style="fill:#824212;" d="M495.654,1803.972c-5.883,0-10.652,4.77-10.652,10.653c0,5.883,4.769,10.653,10.652,10.653
	c5.883,0,10.653-4.77,10.653-10.653C506.307,1808.742,501.537,1803.972,495.654,1803.972z"/>
<path style="fill:#824212;" d="M516.207,1649.279c-11.351,0-20.553,9.203-20.553,20.553c0,11.349,9.201,20.551,20.553,20.551
	c11.35,0,20.551-9.201,20.551-20.551C536.757,1658.482,527.556,1649.279,516.207,1649.279z"/>
<path style="fill:#824212;" d="M584.116,1554.593c-5.883,0-10.651,4.767-10.651,10.651c0,5.883,4.768,10.652,10.651,10.652
	c5.883,0,10.652-4.77,10.652-10.652C594.769,1559.36,589.999,1554.593,584.116,1554.593z"/>
<path style="fill:#824212;" d="M474.502,1536.973c-6.943,0-12.57,5.627-12.57,12.57c0,6.94,5.628,12.567,12.57,12.567
	c6.943,0,12.57-5.627,12.57-12.567C487.072,1542.6,481.445,1536.973,474.502,1536.973z"/>
<path style="fill:#824212;" d="M1659.646,1643.606c7.903,0,14.312,6.407,14.312,14.311c0,7.903-6.409,14.309-14.312,14.309
	c-7.905,0-14.311-6.407-14.311-14.309C1645.335,1650.013,1651.742,1643.606,1659.646,1643.606z"/>
<path style="fill:#824212;" d="M1593.016,1684.96c5.883,0,10.652,4.769,10.652,10.653c0,5.883-4.77,10.65-10.652,10.65
	c-5.883,0-10.653-4.767-10.653-10.65C1582.363,1689.729,1587.133,1684.96,1593.016,1684.96z"/>
<path style="fill:#824212;" d="M1572.466,1530.267c11.349,0,20.551,9.201,20.551,20.551c0,11.351-9.201,20.553-20.551,20.553
	c-11.352,0-20.553-9.201-20.553-20.553C1551.913,1539.468,1561.114,1530.267,1572.466,1530.267z"/>
<path style="fill:#824212;" d="M1504.554,1435.578c5.883,0,10.65,4.77,10.65,10.653c0,5.883-4.767,10.653-10.65,10.653
	s-10.653-4.77-10.653-10.653C1493.901,1440.348,1498.671,1435.578,1504.554,1435.578z"/>
<ellipse transform="matrix(0.5165 -0.8563 0.8563 0.5165 -444.5242 2073.7512)" style="fill:#824212;" cx="1614.168" cy="1430.528" rx="12.57" ry="12.57"/>
<path style="fill:#B2671A;" d="M1797.83,1992.857c-1.608-62.652-13.184-126.428-48.623-177.687
	c-38.801-56.122-112.114-92.56-177.048-71.61c-9.388,3.031-19.04,7.218-28.743,5.443c-16.463-3.013-24.899-21.011-30.721-36.704
	c-20.236-54.543-40.47-109.083-60.706-163.625c-22.903-61.732-49.013-127.616-104.048-163.765
	c-28.051-18.421-61.454-27.332-94.825-30.862c-111.661-11.805-230.464,40.402-288.302,136.637
	c-32.417-25.137-66.253-50.961-106.284-59.919c-83.651-18.714-165.88,42.499-212.537,114.406
	c-36.818,56.74-60.078,122.216-67.305,189.468c-3.951,36.755-4.789,77.833-30.813,104.089
	c-35.072,35.384-94.893,23.934-140.617,43.715c-44.219,19.13-68.06,63.12-83.768,110.416H1797.83z"/>
<path style="fill:#98CEB0;" d="M854.253,1028.215c-9.52-31.608-17.325-63.692-23.293-96.16c-1.742-9.479-16.197-5.464-14.46,3.988
	c4.626,25.169,10.336,50.119,17.103,74.789c-39.992-32.935-81.895-63.68-123.585-94.65c-13.425-37.313-27.97-74.204-43.576-110.659
	c-1.606-3.752-7.052-4.512-10.258-2.69c-3.873,2.205-4.273,6.558-2.69,10.258c12.253,28.623,23.761,57.559,34.614,86.74
	c-23.171-17.372-46.156-34.947-68.552-53.196c-29.296-23.868-57.617-48.945-84.06-75.958c-6.76-6.909-17.362,3.698-10.604,10.602
	c47.344,48.37,100.338,89.963,154.318,130.393c-31.858,5.062-63.926,8.592-96.145,10.419c-9.596,0.546-9.659,15.544,0,14.996
	c37.819-2.144,75.475-6.539,112.798-12.999c46.874,34.855,94.094,69.317,138.71,106.93c-28.616-3.338-56.952-8.65-84.861-15.905
	c-9.347-2.429-13.335,12.032-3.986,14.46c35.574,9.248,71.88,15.372,108.504,18.451c23.68,20.935,46.44,42.898,67.609,66.392
	c6.475,7.186,17.052-3.447,10.604-10.604C908.03,1076.724,881.692,1051.837,854.253,1028.215z"/>
<path style="fill:#98CEB0;" d="M1112.245,415.858c-15.12,29.698-30.891,59.054-47.237,88.092
	c-5.678-54.893-14.183-109.497-25.522-163.506c17.9-35.841,33.422-72.842,46.362-110.757c3.126-9.152-11.354-13.082-14.46-3.986
	c-10.599,31.055-23.035,61.403-37.074,91.037c-3.927-17.371-8.122-34.684-12.633-51.914c-9.605-36.691-20.565-73.02-32.777-108.929
	c-3.091-9.087-17.581-5.187-14.46,3.985c17.929,52.725,33.042,106.391,45.325,160.688c-23.956-24.74-47.788-49.6-71.41-74.66
	c-6.633-7.038-17.225,3.581-10.604,10.604c28.965,30.726,58.178,61.213,87.641,91.459l0.405,0.341
	c10.925,52.679,19.14,105.916,24.599,159.455c-27.143-26.316-54.604-52.299-82.521-77.792c-7.113-6.497-17.749,4.078-10.604,10.604
	c31.934,29.162,63.366,58.867,94.287,89.1l0.994,0.797c0.546,6.285,1.091,12.57,1.564,18.862
	c2.772,37.037,4.209,74.162,4.377,111.299c0.044,9.649,15.04,9.669,14.996,0c-0.2-43.61-2.229-87.207-6.003-130.654
	c20.129-35.028,39.374-70.555,57.703-106.557C1129.563,414.844,1116.631,407.246,1112.245,415.858z"/>
<path style="fill:#98CEB0;" d="M1673.849,604.463c-40.394,8.363-80.255,18.996-119.47,31.649
	c19.681-21.388,39.849-42.321,60.528-62.747c6.877-6.792-3.727-17.396-10.602-10.604c-26.244,25.922-51.696,52.63-76.321,80.092
	c-0.77,0.86-1.284,1.769-1.6,2.689c-24.117,8.463-47.988,17.644-71.522,27.666c-40.999,17.456-80.952,37.354-119.668,59.415
	c17.133-32.675,36.034-64.389,56.816-94.894c5.45-7.995-7.539-15.505-12.947-7.568c-25.357,37.215-48.039,76.165-67.929,116.564
	c-19.566,11.783-38.825,24.075-57.656,37.001c-35.495,24.365-69.612,50.733-102.184,78.882c-7.315,6.319,3.333,16.886,10.604,10.604
	c49.225-42.54,102.114-80.727,157.865-114.228c0.738-0.26,1.432-0.677,2.063-1.267l1.301-0.787c0.499,0.3,1.021,0.573,1.578,0.787
	c30.935,11.898,62.209,22.877,93.792,32.923c9.22,2.933,13.164-11.542,3.988-14.461c-27.875-8.867-55.498-18.504-82.869-28.813
	c2.601-1.493,5.172-3.042,7.785-4.516c60.816-34.275,124.72-62.933,190.737-85.602c24.07,13.69,47.171,29.086,68.854,46.314
	c3.167,2.516,7.513,3.091,10.604,0c2.612-2.612,3.189-8.073,0-10.604c-19.291-15.328-39.532-29.349-60.623-42.041
	c39.673-12.853,80.026-23.539,120.864-31.992C1687.281,616.969,1683.283,602.511,1673.849,604.463z"/>
<path style="fill:#824212;" d="M782.175,1509.972c-43.898,15.491-74.445,56.302-97.271,94.986
	c-24.287,41.162-40.757,87.091-48.082,134.32c-4.129,26.611-5.53,53.508-3.929,80.394c0.57,9.591,15.571,9.654,14.996,0
	c-5.318-89.32,22.909-181.723,80.401-250.814c15.685-18.85,34.377-36.134,57.873-44.426
	C795.201,1521.244,791.31,1506.749,782.175,1509.972z"/>
<path style="fill:#824212;" d="M857.678,1481.953c-11.559-1.491-23.632-0.048-34.541,4.059c-3.659,1.379-6.563,5.126-5.235,9.223
	c1.157,3.576,5.291,6.716,9.223,5.237c2.582-0.972,5.214-1.802,7.896-2.458c1.342-0.327,2.692-0.614,4.049-0.858
	c0.582-0.102,1.167-0.19,1.749-0.29l0.134-0.02l0.512-0.058c5.393-0.604,10.833-0.534,16.214,0.161
	c1.764,0.226,4.109-1.001,5.303-2.197c1.301-1.299,2.28-3.432,2.195-5.301c-0.085-1.939-0.723-3.951-2.195-5.301
	C861.415,1482.711,859.77,1482.223,857.678,1481.953z"/>
<path style="fill:#824212;" d="M1315.698,1440.336c-16.061-15.157-34.733-26.769-56.927-29.632c-9.542-1.23-9.452,13.778,0,14.996
	c17.902,2.309,33.5,13.147,46.323,25.24c13.508,12.738,25.303,27.372,35.698,42.726c21.123,31.201,36.424,65.912,48.204,101.599
	c6.804,20.612,12.461,41.578,17.486,62.689c2.234,9.386,16.697,5.413,14.46-3.986
	C1402.677,1577.229,1374.538,1495.875,1315.698,1440.336z"/>
<path style="fill:#824212;" d="M1449.702,1710.326c-0.926-3.812-5.452-6.458-9.223-5.237c-3.963,1.284-6.229,5.138-5.237,9.225
	c1.864,7.669,4.185,15.218,6.958,22.607c0.701,1.871,1.668,3.442,3.444,4.482c1.608,0.94,3.978,1.338,5.781,0.755
	c3.579-1.16,6.711-5.291,5.235-9.223C1453.887,1725.544,1451.565,1717.997,1449.702,1710.326z"/>
<path style="fill:#824212;" d="M1684.701,1800.326c-7.696-5.822-15.177,7.194-7.569,12.947
	c33.142,25.064,40.609,69.563,44.024,108.272c0.843,9.537,15.847,9.627,14.996,0
	C1732.189,1876.642,1722.747,1829.1,1684.701,1800.326z"/>
<path style="fill:#824212;" d="M448.239,1904.261c-34.769,3.822-65.305,29.24-74.27,63.298c-2.458,9.342,12.002,13.328,14.46,3.988
	c7.155-27.184,31.961-49.227,59.81-52.29c4.024-0.44,7.498-3.13,7.498-7.498C455.737,1908.049,452.29,1903.818,448.239,1904.261z"/>
</svg>
